<svg xmlns="http://www.w3.org/2000/svg" xmlns:xlink="http://www.w3.org/1999/xlink" viewBox="0 0 142 94.67">
  <defs>
    <clipPath id="a">
      <rect x="-2" y="-32.33" width="154.27" height="157.33" fill="none"/>
    </clipPath>
  </defs>
  <title>logo-large-3</title>
  <g clip-path="url(#a)">
    <g>
      <g>
        <g style="isolation: isolate">
          <g style="isolation: isolate">
            <path d="M101.12,64.74l25.3,4.46-3.49,19.74L97.64,84.48Zm9.62-59.25,27,4.76L123.86,65.09l-18.92-3.34Z"/>
          </g>
          <g style="isolation: isolate">
            <path d="M101.12,64.74l25.3,4.46-3.49,19.74L97.64,84.48Zm9.62-59.25,27,4.76L123.86,65.09l-18.92-3.34Z" fill="none" stroke="#000" stroke-width="6"/>
          </g>
        </g>
        <g style="isolation: isolate">
          <g style="isolation: isolate">
            <path d="M101.12,64.74l25.3,4.46-3.49,19.74L97.64,84.48Zm9.62-59.25,27,4.76L123.86,65.09l-18.92-3.34Z" fill="#fff"/>
          </g>
        </g>
        <g style="isolation: isolate">
          <g style="isolation: isolate">
            <path d="M5.35,36.1l8.9-1.58,4.66,8.65,1.41-9.72,5.75-1,4.66,8.64,1.41-9.72L41,29.79,37,57.6l-6.54,1.16-4.05-7.5L25.2,59.69l-6.54,1.15Z"/>
            <path d="M41.64,29.69l9.06-1.6a15.83,15.83,0,0,1,4.78-.16,11.06,11.06,0,0,1,4.08,1.31,9.24,9.24,0,0,1,3,2.78,10.53,10.53,0,0,1,1.66,4.24,9.29,9.29,0,0,1,0,3.44,10.47,10.47,0,0,1-.82,2.5,8.57,8.57,0,0,1-1.47,2l6.46,7.8-9.85,1.74-5.12-6,1.18,6.66L46.28,56ZM52.31,41.13l.43-.08a4.73,4.73,0,0,0,2.43-1.12,2.51,2.51,0,0,0,.64-2.43,2.47,2.47,0,0,0-1.44-2.06,4.68,4.68,0,0,0-2.66-.22l-.43.08Z"/>
            <path d="M64.61,25.63l8.9-1.57,4.64,26.28-8.9,1.57Z"/>
            <path d="M81,29.85l-4.84.86-1.22-6.9,18.36-3.24,1.22,6.89-4.85.86L93,47.7l-8.66,1.54Z"/>
            <path d="M94.63,20.33l15.48-2.74,1.22,6.9-7.09,1.25.51,2.91,7-1.23L112.88,34l-7,1.23.53,3,7.37-1.3L115,43.82,99.27,46.61Z"/>
          </g>
          <g style="isolation: isolate">
            <path d="M5.35,36.1l8.9-1.58,4.66,8.65,1.41-9.72,5.75-1,4.66,8.64,1.41-9.72L41,29.79,37,57.6l-6.54,1.16-4.05-7.5L25.2,59.69l-6.54,1.15Z" fill="none" stroke="#000" stroke-width="6"/>
            <path d="M41.64,29.69l9.06-1.6a15.83,15.83,0,0,1,4.78-.16,11.06,11.06,0,0,1,4.08,1.31,9.24,9.24,0,0,1,3,2.78,10.53,10.53,0,0,1,1.66,4.24,9.29,9.29,0,0,1,0,3.44,10.47,10.47,0,0,1-.82,2.5,8.57,8.57,0,0,1-1.47,2l6.46,7.8-9.85,1.74-5.12-6,1.18,6.66L46.28,56ZM52.31,41.13l.43-.08a4.73,4.73,0,0,0,2.43-1.12,2.51,2.51,0,0,0,.64-2.43,2.47,2.47,0,0,0-1.44-2.06,4.68,4.68,0,0,0-2.66-.22l-.43.08Z" fill="none" stroke="#000" stroke-width="6"/>
            <path d="M64.61,25.63l8.9-1.57,4.64,26.28-8.9,1.57Z" fill="none" stroke="#000" stroke-width="6"/>
            <path d="M81,29.85l-4.84.86-1.22-6.9,18.36-3.24,1.22,6.89-4.85.86L93,47.7l-8.66,1.54Z" fill="none" stroke="#000" stroke-width="6"/>
            <path d="M94.63,20.33l15.48-2.74,1.22,6.9-7.09,1.25.51,2.91,7-1.23L112.88,34l-7,1.23.53,3,7.37-1.3L115,43.82,99.27,46.61Z" fill="none" stroke="#000" stroke-width="6"/>
          </g>
        </g>
        <g style="isolation: isolate">
          <g style="isolation: isolate">
            <path d="M21.94,64.31l6.89-1.21,9,8.84L36.08,61.82l8.23-1.46L49,86.64,42,87.87l-9-8.82,1.78,10.09-8.23,1.45Z"/>
            <path d="M48.81,73.14a13.63,13.63,0,0,1,.13-5.55A14,14,0,0,1,55,58.94a13.79,13.79,0,0,1,5.17-2,13.63,13.63,0,0,1,5.55.14,14.07,14.07,0,0,1,8.65,6.05,13.48,13.48,0,0,1,2,5.17,13.63,13.63,0,0,1-.13,5.55,14,14,0,0,1-6,8.64,13.62,13.62,0,0,1-5.17,2,13.81,13.81,0,0,1-5.55-.13,14.08,14.08,0,0,1-4.91-2.19,13.77,13.77,0,0,1-3.73-3.87A13.51,13.51,0,0,1,48.81,73.14Zm8.27-1.46a5.34,5.34,0,0,0,.81,2.07,5.91,5.91,0,0,0,1.49,1.54,5.65,5.65,0,0,0,2,.87,5.54,5.54,0,0,0,4.29-.76A5.58,5.58,0,0,0,68.06,72a5.65,5.65,0,0,0-.76-4.29,5.8,5.8,0,0,0-1.49-1.55,5.65,5.65,0,0,0-2-.87,5.54,5.54,0,0,0-4.29.76A5.61,5.61,0,0,0,58,67.49a5.52,5.52,0,0,0-.88,2A5.39,5.39,0,0,0,57.08,71.68Z"/>
            <path d="M74.06,55.11,83,53.53l4.66,8.65L89,52.46l5.76-1,4.65,8.64,1.41-9.72,8.91-1.57-4,27.81-6.54,1.16-4-7.5L93.91,78.7l-6.54,1.15Z"/>
          </g>
          <g style="isolation: isolate">
            <path d="M21.94,64.31l6.89-1.21,9,8.84L36.08,61.82l8.23-1.46L49,86.64,42,87.87l-9-8.82,1.78,10.09-8.23,1.45Z" fill="none" stroke="#000" stroke-width="6"/>
            <path d="M48.81,73.14a13.63,13.63,0,0,1,.13-5.55A14,14,0,0,1,55,58.94a13.79,13.79,0,0,1,5.17-2,13.63,13.63,0,0,1,5.55.14,14.07,14.07,0,0,1,8.65,6.05,13.48,13.48,0,0,1,2,5.17,13.63,13.63,0,0,1-.13,5.55,14,14,0,0,1-6,8.64,13.62,13.62,0,0,1-5.17,2,13.81,13.81,0,0,1-5.55-.13,14.08,14.08,0,0,1-4.91-2.19,13.77,13.77,0,0,1-3.73-3.87A13.51,13.51,0,0,1,48.81,73.14Zm8.27-1.46a5.34,5.34,0,0,0,.81,2.07,5.91,5.91,0,0,0,1.49,1.54,5.65,5.65,0,0,0,2,.87,5.54,5.54,0,0,0,4.29-.76A5.58,5.58,0,0,0,68.06,72a5.65,5.65,0,0,0-.76-4.29,5.8,5.8,0,0,0-1.49-1.55,5.65,5.65,0,0,0-2-.87,5.54,5.54,0,0,0-4.29.76A5.61,5.61,0,0,0,58,67.49a5.52,5.52,0,0,0-.88,2A5.39,5.39,0,0,0,57.08,71.68Z" fill="none" stroke="#000" stroke-width="6"/>
            <path d="M74.06,55.11,83,53.53l4.66,8.65L89,52.46l5.76-1,4.65,8.64,1.41-9.72,8.91-1.57-4,27.81-6.54,1.16-4-7.5L93.91,78.7l-6.54,1.15Z" fill="none" stroke="#000" stroke-width="6"/>
          </g>
        </g>
      </g>
      <g>
        <g style="isolation: isolate">
          <g style="isolation: isolate">
            <path d="M5.35,36.1l8.9-1.58,4.66,8.65,1.41-9.72,5.75-1,4.66,8.64,1.41-9.72L41,29.79,37,57.6l-6.54,1.16-4.05-7.5L25.2,59.69l-6.54,1.15ZM22,57l2.33-17.44,8.15,15.59,1-.18,3.05-21.14L35.49,34,32.71,53.24l-9-17.14L21.21,55.28,12,38.17,11,38.36,21.06,57.17Z" fill="#fff"/>
            <path d="M41.64,29.69l9.06-1.6a15.83,15.83,0,0,1,4.78-.16,11.06,11.06,0,0,1,4.08,1.31,9.24,9.24,0,0,1,3,2.78,10.53,10.53,0,0,1,1.66,4.24,9.29,9.29,0,0,1,0,3.44,10.47,10.47,0,0,1-.82,2.5,8.57,8.57,0,0,1-1.47,2l6.46,7.8-9.85,1.74-5.12-6,1.18,6.66L46.28,56ZM52.86,45.38a14.6,14.6,0,0,0,2.94-.85l4.85,5.65L61.88,50,56.77,44a7.53,7.53,0,0,0,3-2.91,6.29,6.29,0,0,0,.54-4.26,6.37,6.37,0,0,0-3.42-4.78,8.48,8.48,0,0,0-3-.85,12.35,12.35,0,0,0-3.51.15l-4.26.75,3.53,20,1-.18-1.06-6ZM49.46,45,47.32,32.91l3.23-.57a9.07,9.07,0,0,1,5.9.58,5.44,5.44,0,0,1,2.82,4.13A5.38,5.38,0,0,1,58,41.88a9.14,9.14,0,0,1-5.34,2.55Zm2.85-3.87.43-.08a4.73,4.73,0,0,0,2.43-1.12,2.51,2.51,0,0,0,.64-2.43,2.47,2.47,0,0,0-1.44-2.06,4.68,4.68,0,0,0-2.66-.22l-.43.08Z" fill="#fff"/>
            <path d="M64.61,25.63l8.9-1.57,4.64,26.28-8.9,1.57Zm9,22.25-3.52-20-1,.18,3.53,20Z" fill="#fff"/>
            <path d="M81,29.85l-4.84.86-1.22-6.9,18.36-3.24,1.22,6.89-4.85.86L93,47.7l-8.66,1.54Zm7.72,15.38-3.37-19,5.64-1-.17-.94L78.48,26.43l.17.94,5.63-1,3.36,19Z" fill="#fff"/>
            <path d="M94.63,20.33l15.48-2.74,1.22,6.9-7.09,1.25.51,2.91,7-1.23L112.88,34l-7,1.23.53,3,7.37-1.3L115,43.82,99.27,46.61Zm16.93,20.85-.17-.94-7.88,1.39L102,33l7.48-1.32-.17-.95-7.48,1.33-1.51-8.51,7.89-1.4-.17-.94-8.91,1.57,3.53,20Z" fill="#fff"/>
          </g>
        </g>
        <g style="isolation: isolate">
          <g style="isolation: isolate">
            <path d="M21.94,64.31l6.89-1.21,9,8.84L36.08,61.82l8.23-1.46L49,86.64,42,87.87l-9-8.82,1.78,10.09-8.23,1.45Zm8.77,22.3-3.22-18.2L43.71,84.32l1-.18-3.53-20-1,.18,3.22,18.2L27.18,66.64l-1,.18,3.52,20Z" fill="#fff"/>
            <path d="M48.81,73.14a13.63,13.63,0,0,1,.13-5.55A14,14,0,0,1,55,58.94a13.79,13.79,0,0,1,5.17-2,13.63,13.63,0,0,1,5.55.14,14.07,14.07,0,0,1,8.65,6.05,13.48,13.48,0,0,1,2,5.17,13.63,13.63,0,0,1-.13,5.55,14,14,0,0,1-6,8.64,13.62,13.62,0,0,1-5.17,2,13.81,13.81,0,0,1-5.55-.13,14.08,14.08,0,0,1-4.91-2.19,13.77,13.77,0,0,1-3.73-3.87A13.51,13.51,0,0,1,48.81,73.14Zm3.7-.66A9.78,9.78,0,0,0,54,76.26a10.23,10.23,0,0,0,2.73,2.83,10.35,10.35,0,0,0,3.6,1.6,10.27,10.27,0,0,0,7.84-1.38A10.36,10.36,0,0,0,72.59,73a10.34,10.34,0,0,0-1.39-7.84,10.28,10.28,0,0,0-6.33-4.43A10.34,10.34,0,0,0,57,62.1a10.37,10.37,0,0,0-2.83,2.73,10.48,10.48,0,0,0-1.6,3.59A9.9,9.9,0,0,0,52.51,72.48ZM64.2,79.76a8.83,8.83,0,0,1-3.66-.08,9.27,9.27,0,0,1-5.67-4,9.19,9.19,0,0,1-1.25-7,9.37,9.37,0,0,1,1.44-3.22A9.56,9.56,0,0,1,57.59,63a9.26,9.26,0,0,1,7.06-1.24,9.37,9.37,0,0,1,5.68,4,9.13,9.13,0,0,1,1.33,3.4,8.94,8.94,0,0,1-.09,3.65,9.37,9.37,0,0,1-4,5.68A8.8,8.8,0,0,1,64.2,79.76Zm-7.12-8.08a5.34,5.34,0,0,0,.81,2.07,5.91,5.91,0,0,0,1.49,1.54,5.65,5.65,0,0,0,2,.87,5.54,5.54,0,0,0,4.29-.76A5.58,5.58,0,0,0,68.06,72a5.65,5.65,0,0,0-.76-4.29,5.8,5.8,0,0,0-1.49-1.55,5.65,5.65,0,0,0-2-.87,5.54,5.54,0,0,0-4.29.76A5.61,5.61,0,0,0,58,67.49a5.52,5.52,0,0,0-.88,2A5.39,5.39,0,0,0,57.08,71.68Z" fill="#fff"/>
            <path d="M74.06,55.11,83,53.53l4.66,8.65L89,52.46l5.76-1,4.65,8.64,1.41-9.72,8.91-1.57-4,27.81-6.54,1.16-4-7.5L93.91,78.7l-6.54,1.15ZM90.75,76l2.33-17.44,8.15,15.58,1-.17,3-21.14-1.06.19-2.78,19.22-9-17.14L89.92,74.28l-9.2-17.1-1.06.19L89.77,76.18Z" fill="#fff"/>
          </g>
        </g>
      </g>
    </g>
  </g>
</svg>
